<?xml version="1.0" standalone="no"?>
<!DOCTYPE svg PUBLIC "-//W3C//DTD SVG 20010904//EN"
 "http://www.w3.org/TR/2001/REC-SVG-20010904/DTD/svg10.dtd">
<svg version="1.0" xmlns="http://www.w3.org/2000/svg"
 width="576.000000pt" height="417.000000pt" viewBox="0 0 576.000000 417.000000"
 preserveAspectRatio="xMidYMid meet">

<g transform="translate(0.000000,417.000000) scale(0.100000,-0.100000)"
fill="#1752BB" stroke="none">
<path d="M2679 4040 c-442 -51 -725 -321 -706 -675 7 -142 64 -255 185 -367
155 -143 348 -236 1062 -514 565 -219 845 -371 1048 -567 179 -175 287 -364
332 -587 36 -175 25 -430 -25 -570 -8 -22 -11 -40 -7 -39 4 0 208 249 454 552
246 304 499 615 561 693 l115 140 -640 755 c-352 415 -651 767 -664 784 l-23
30 0 -140 c1 -154 -10 -215 -46 -251 -70 -69 -185 0 -404 242 -210 233 -428
388 -642 457 -155 51 -429 77 -600 57z"/>
<path d="M655 2772 c-324 -382 -591 -705 -593 -716 -2 -15 145 -201 528 -664
l530 -643 0 73 c0 205 52 308 153 308 48 0 92 -36 232 -184 126 -134 219 -208
450 -358 248 -162 474 -276 679 -343 156 -51 231 -60 368 -47 411 42 707 237
795 524 27 86 22 244 -11 344 -63 196 -240 376 -491 502 -135 67 -325 149
-685 293 -371 150 -711 312 -853 407 -271 181 -447 407 -514 659 -22 83 -26
119 -26 238 0 89 6 169 17 219 8 44 15 80 13 81 -1 1 -267 -311 -592 -693z"/>
</g>
</svg>
